<?xml version="1.0" encoding="UTF-8"?>
<!DOCTYPE svg PUBLIC "-//W3C//DTD SVG 1.1//EN" "http://www.w3.org/Graphics/SVG/1.1/DTD/svg11.dtd">
<!-- Creator: CorelDRAW -->
<svg xmlns="http://www.w3.org/2000/svg" xml:space="preserve" width="1663px" height="1319px" shape-rendering="geometricPrecision" text-rendering="geometricPrecision" image-rendering="optimizeQuality" fill-rule="evenodd" clip-rule="evenodd"
viewBox="0 0 1709.81 1356.27"
 xmlns:xlink="http://www.w3.org/1999/xlink">
 <g id="Ebene_x0020_1">
  <metadata id="CorelCorpID_0Corel-Layer"/>
  <polygon fill="#BB2822" points="0.483353,18.3152 1709.79,18.3152 1709.79,1108.96 0.483353,1108.96 "/>
  <polygon fill="#EC921A" points="0.483353,1094.7 1709.79,1094.7 1709.79,1356.27 0.483353,1356.27 "/>
  <path fill="white" d="M214.451 1264.13c0,-33.4776 -24.4785,-47.2726 -79.7143,-58.0132 -28.2373,-5.3691 -36.0814,-8.43195 -36.0814,-15.0774 0,-6.38803 4.39268,-10.9932 22.5901,-10.9932 22.2864,0 41.7371,6.14392 61.1939,16.8712l29.4991 -38.8455c-23.2191,-13.2898 -50.2092,-20.7016 -87.5524,-20.7016 -53.0376,0 -86.6136,22.7491 -86.6136,56.4842 0,35.7742 25.4173,47.5349 78.4525,57.5044 29.4991,5.61685 37.3432,9.70348 37.3432,16.3575 0,8.43074 -6.90538,11.4984 -28.5567,11.4984 -20.398,0 -48.3304,-8.94567 -64.3272,-17.895l-29.4967 38.8504c22.9046,12.2611 57.1085,21.7217 92.5705,21.7217 52.7243,0 90.693,-16.8675 90.693,-57.7618z"/>
  <path fill="white" d="M1578.68 1248.29l-36.4118 0 4.08664 -11.7608c7.84901,-22.7406 11.2883,-32.715 14.1253,-44.7235 2.8236,12.0085 6.26294,21.7254 14.1083,44.7235l4.09149 11.7608zm92.5705 70.7856l-79.7131 -178.896 -61.5011 0 -79.7095 178.896 65.2708 0 11.932 -31.4337 65.9011 0 11.9199 31.4337 65.8999 0z"/>
  <path fill="white" d="M833.31 1096.42l0 -243.65 -531.735 0c21.8468,-64.779 78.6675,-124.909 282.619,-225.145 195.215,-95.6042 241.845,-181.964 241.845,-323.835 0,-195.84 -132.578,-303.792 -386.069,-303.792 -174.818,-0.00121445 -307.393,52.4353 -437.048,140.326l129.655 220.523c101.975,-72.4871 201.042,-109.49 303.018,-109.49 81.5906,-0.00121445 113.638,26.2079 113.638,74.027 0,43.1702 -16.0235,60.1312 -123.843,111.033 -254.938,120.273 -416.646,296.077 -425.39,660.003l833.31 0z"/>
  <polygon fill="white" points="1187.41,1183.37 1187.41,1140.18 1003.52,1140.18 1003.52,1183.37 1065.04,1183.37 1065.04,1319.08 1125.91,1319.08 1125.91,1183.37 "/>
  <path fill="white" d="M610.829 1248.29l-36.3996 0 4.07814 -11.7608c7.84537,-22.7406 11.2981,-32.715 14.1253,-44.7235 2.82846,12.0085 6.27265,21.7254 14.1168,44.7235l4.07935 11.7608zm92.5839 70.7856l-79.718 -178.896 -53.0619 0 -79.7131 178.896 56.8401 0 11.9223 -31.4337 65.9023 0 11.9235 31.4337 65.9048 0z"/>
  <path fill="white" d="M1274.75 319.222c-2.90012,50.8844 -4.36596,169.615 -4.36596,232.835l0 106.414 -75.76 0c-69.9197,0 -139.849,1.5375 -190.837,4.62221 37.8691,-38.5455 80.1345,-87.8924 134.036,-157.295l14.5577 -18.4949c67.0196,-84.8247 94.6922,-123.37 122.37,-168.082zm435.051 592.143l0 -252.894 -185.918 0 0 -641.51 -279.728 0 -549.229 667.716 0 218.981 575.458 0 0 192.764 253.499 0 0 -185.057 185.918 0z"/>
 </g>
</svg>
