<?xml version="1.0" encoding="utf-8"?>
<!-- Generator: Adobe Illustrator 27.2.0, SVG Export Plug-In . SVG Version: 6.00 Build 0)  -->
<svg version="1.1" id="Layer_1" xmlns="http://www.w3.org/2000/svg" xmlns:xlink="http://www.w3.org/1999/xlink" x="0px" y="0px"
	 viewBox="0 0 44 48" style="enable-background:new 0 0 44 48;" xml:space="preserve">
<style type="text/css">
	.st0{fill:#F7931E;}
</style>
<path d="M15.1,23.8l-2.9-6.4l2.4-5.4h-3.8l-1.5,4.2H9.2V12H5.7v11.8h3.5v-4.4h0.1l1.7,4.4H15.1z"/>
<path d="M20.9,19.6c0,1.1-0.2,1.7-1.1,1.7c-0.9,0-1.2-0.4-1.2-1.7V12H15v7.7c0,2.8,1.4,4.2,4.6,4.2c3.4,0,4.8-1.9,4.8-4.8V12h-3.5
	V19.6z"/>
<path d="M29.2,23.8V20c0.2,0,0.4,0,0.6,0c3.3,0,4.7-1.8,4.7-4.1c0-2.7-1.5-3.9-4.7-3.9c-1.2,0-3.2,0-4.2,0v11.8H29.2z M29.2,14.7
	c0.2,0,0.4,0,0.6,0c0.9,0,1.1,0.4,1.1,1.3c0,0.9-0.3,1.3-1.1,1.3c-0.2,0-0.4,0-0.6,0V14.7z"/>
<path d="M38.7,23.8V12h-3.6v11.8H38.7z"/>
<path class="st0" d="M11.2,27.7v7.6H1.5v-7.6H11.2z M11.7,27.2H1v8.5h10.7V27.2z"/>
<path class="st0" d="M18,30.4c-0.2-0.3-0.3-0.6-0.6-0.9c-0.3-0.3-0.6-0.5-0.9-0.6c-0.3-0.1-0.7-0.2-1.1-0.2c-0.4,0-0.7,0.1-1.1,0.2
	c-0.3,0.2-0.6,0.3-0.9,0.6c-0.3,0.3-0.5,0.6-0.6,0.9c-0.2,0.3-0.2,0.7-0.2,1.1c0,0.4,0.1,0.7,0.2,1.1c0.1,0.3,0.3,0.6,0.6,0.9
	c0.3,0.3,0.6,0.5,0.9,0.6c0.3,0.1,0.7,0.2,1.1,0.2c0.4,0,0.7-0.1,1.1-0.2c0.3-0.2,0.6-0.3,0.9-0.6c0.3-0.3,0.5-0.6,0.6-0.9
	c0.2-0.3,0.2-0.7,0.2-1.1C18.3,31.1,18.2,30.7,18,30.4L18,30.4z M16.3,32.3c-0.2,0.2-0.5,0.4-0.9,0.4c-0.3,0-0.6-0.1-0.9-0.4
	c-0.2-0.2-0.4-0.5-0.4-0.9c0-0.3,0.1-0.6,0.4-0.9c0.2-0.2,0.5-0.4,0.9-0.4c0.3,0,0.6,0.1,0.9,0.4c0.2,0.2,0.4,0.5,0.4,0.9
	C16.7,31.8,16.6,32.1,16.3,32.3L16.3,32.3z"/>
<path class="st0" d="M23.7,31.7c0.2-0.3,0.3-0.6,0.3-1c0-0.3-0.1-0.7-0.3-0.9c-0.2-0.3-0.4-0.5-0.7-0.7c-0.3-0.2-0.6-0.3-1-0.3h-3.2
	v5.4h1.6v-3.8H22c0.1,0,0.2,0,0.2,0.1c0.1,0.1,0.1,0.1,0.1,0.2c0,0.1,0,0.2-0.1,0.3C22.1,31,22.1,31,22,31h-1.6v1.6h1l0.5,1.5h1.7
	L23,32.4C23.3,32.2,23.5,32,23.7,31.7L23.7,31.7z"/>
<path class="st0" d="M27.8,28.8h-0.2h-0.1h-0.3H27h-0.3h-0.3H26l-2.1,5.4H24h0.1h0.3h0.3h0.3h0.3h0.5l1.2-2.9l0.1-0.2l0.5,1.3h-1.1
	l-0.5,1.2h2l0.3,0.6h0.5h0.3h0.3h0.3h0.3h0.1h0.1L27.8,28.8z"/>
<path class="st0" d="M35.5,28.8h-1.5v2.9l1.4,2.1l-3.1-5h-1.9v5.4H32v-2.7l1.7,2.7h1.9v-5.4H35.5L35.5,28.8z"/>
<path class="st0" d="M36.5,28.8v1.6h2.7l-2.7,1.8v1.9h5.2v-1.6h-3.2l-1.7,1.4l4.8-3.2v-1.9H36.5z"/>
<path class="st0" d="M10.5,33.2v-1.2H9.6v-3.1H8.2l-2.7,3.3v1.1h2.8v0.9h1.2v-0.9H10.5L10.5,33.2z M8.3,30.3c0,0.2,0,0.8,0,1.1v0.5
	H8c-0.3,0-0.7,0-0.9,0c0.2-0.2,0.4-0.4,0.7-0.8l0.1-0.1C8.1,30.7,8.2,30.5,8.3,30.3L8.3,30.3z"/>
<path class="st0" d="M6.2,34.1v-1.2H3.6C3.7,32.6,4,32.3,5,31.8c1-0.5,1.2-0.9,1.2-1.6c0-1-0.6-1.5-1.9-1.5c-0.9,0-1.5,0.3-2.1,0.7
	l0.6,1.1c0.5-0.4,1-0.5,1.5-0.5c0.4,0,0.6,0.1,0.6,0.4c0,0.2-0.1,0.3-0.6,0.5c-1.3,0.6-2,1.5-2.1,3.2L6.2,34.1L6.2,34.1z"/>
<path class="st0" d="M41,27.2l-0.2,0.5h2.1v7.6H11.7v-7.6h25.9l-0.2-0.5H11.2v8.5h32.2v-8.5H41z"/>
<path class="st0" d="M38.4,27.2l0.2,0.5h0.8h0.1h0.5l0.2-0.5H38.4z"/>
<path class="st0" d="M38.4,27.3l0.2,0.5h0.8h0.1h0.4l0.2-0.5H38.4z"/>
</svg>
