<svg xmlns="http://www.w3.org/2000/svg" width="45" height="20" viewBox="0 0 45 20"><defs><style>.a{fill:#1a1a1a;}.b{fill:#f5a528;}.c{fill:#d22328;}.d{fill:#fff;fill-rule:evenodd;}</style></defs><path class="a" d="M9.11,12.84a6.05,6.05,0,0,1-3.78,1.33A8.34,8.34,0,0,1,0,12.51L2.06,8.93a6.56,6.56,0,0,0,3.61,1.48c.57,0,1-.19,1-.59s-.47-.55-.95-.7C5,8.92,4.4,8.71,3.76,8.48,1.84,7.7.56,6.75.56,4.36A4.32,4.32,0,0,1,2.2,1a5.79,5.79,0,0,1,4-.95,7.41,7.41,0,0,1,4.47,1.91L9.11,5a5.28,5.28,0,0,0-3-1.41c-.68,0-1.07.1-1.07.52s.61.56.92.67S7,5.1,7.47,5.27C9.36,6,10.71,7,10.71,9.33a4.73,4.73,0,0,1-1.6,3.51m7.89.53V8.86c0-.9-.08-1.59-.82-1.59s-.84.68-.84,1.6v4.58l-3.73.18V.54l3.73.27V3.56c0,.55,0,1.74,0,1.74A2.29,2.29,0,0,1,17.54,4c2.26.1,2.84,1.78,2.84,4v5.24Zm8.15-6.13c-.6,0-.94.58-.94,1.47s.34,1.46.94,1.44.92-.59.92-1.45-.33-1.45-.92-1.46m0,5.95c-2.31.11-4.07-1.47-4.07-4.42s1.76-4.54,4.07-4.44S28.91,6,28.91,8.74s-1.56,4.34-3.76,4.45M33,7.33c-.48,0-.91.45-.91,1.35S32.55,10,33,10s.88-.47.88-1.34-.4-1.34-.88-1.34m.81,5.43a1.65,1.65,0,0,1-1.66-.88c0,.38,0,.77,0,1.31V16l-2.64.21V4.67l2.49.09,0,.78a2.08,2.08,0,0,1,1.8-.86c1.56.07,2.51,1.82,2.51,4s-1,4-2.51,4m5.88-3.37a.5.5,0,0,0-.48.58c0,.43.24.57.48.56a.54.54,0,0,0,.43-.29V9.35ZM43,5.18l2,.08v6.47c0,1.9-.57,2.85-1.81,2.95a5.4,5.4,0,0,1-1.21-.08h-.05l-.14-1.37s1.32.2,1.25-1.57Zm-3.35-.27c1.57.06,2.61.92,2.61,3.42v3.86l-2,.1,0-.64a1.63,1.63,0,0,1-1.26.87c-.94.05-2-.52-2-2.36a2.06,2.06,0,0,1,2-2.29l1.15-.07V7.73c0-.39-.22-.68-.81-.69a2.74,2.74,0,0,0-1.59.63l-.56-2.09A4.55,4.55,0,0,1,39.63,4.91ZM44,2c.63.05,1,.65,1,1.51s-.4,1.41-1,1.39-1.06-.62-1.06-1.51S43.33,1.9,44,2Z"/><path class="b" d="M28.48,14.18.16,15.86l.32,3.68,28-3.23Z"/><path class="c" d="M33.52,17.69l8.72-.76-.5-5.7L33.11,12Z"/><path class="d" d="M40.22,12l.23,2.6.77-.07.09,1h0l-.76.07.07.75-1,.09-.07-.78-1.77.15.06.78-3.38.3a2.73,2.73,0,0,1,1.49-2.83c.42-.25.48-.32.47-.5s-.16-.29-.49-.26a2.1,2.1,0,0,0-1.19.56L34.09,13a3,3,0,0,1,1.73-.73c1-.09,1.6.3,1.67,1.1,0,.57-.11.94-.87,1.4s-1,.74-1.06,1l1.59-.14L37.09,15l2-2.9L40.22,12Zm-.9,1.31c0,.21,0,.69.06.95l0,.43-.31,0-.77.08a6.52,6.52,0,0,0,.49-.68l.05-.08c.24-.37.34-.54.44-.73"/></svg>